# xmcd
#
# Track frame offsets: 
#        150
#        32545
#        55802
#        83585
#        108300
#        127125
#        147592
#        172375
#
# Disc length: 2630 seconds
#
# Revision: 3
# Processed by: cddbd v1.5.2PL0 Copyright (c) Steve Scherf et al.
# Submitted via: ExactAudioCopy v0.99pb4
#
DISCID=700a4408
DTITLE=Babyface - My Kinda Girl
DYEAR=1990
DGENRE=Pop
TTITLE0=My Kinda Girl (Scratch Mix)
TTITLE1=My Kinda Girl (Radio Mix)
TTITLE2=My Kinda Girl (Racquet Gass Dub)
TTITLE3=My Kinda Girl (L.A. Face Bonus Beats)
TTITLE4=My Kinda Girl (Single Version)
TTITLE5=My Kinda Girl (Instrumental)
TTITLE6=My Kinda Girl (Dope Dutt Dub Mix)
TTITLE7=Whip Appeal (The Ultimate Whip)
EXTD=YEAR: 1990
EXTT0=
EXTT1=
EXTT2=
EXTT3=
EXTT4=
EXTT5=
EXTT6=
EXTT7=
PLAYORDER=
